<mxfile host="65bd71144e">
    <diagram id="f0R_gTmEbICUevjb02AO" name="DH">
        <mxGraphModel dx="858" dy="644" grid="1" gridSize="10" guides="1" tooltips="1" connect="1" arrows="1" fold="1" page="1" pageScale="1" pageWidth="827" pageHeight="1169" math="0" shadow="0">
            <root>
                <mxCell id="kDPMOWYQrUD8QyIsPTHs-0"/>
                <mxCell id="kDPMOWYQrUD8QyIsPTHs-1" parent="kDPMOWYQrUD8QyIsPTHs-0"/>
                <mxCell id="36" value="中间人可以监听到Ya Yb a q 这个四个数字&lt;br&gt;A和B的私钥和最终协商出来的秘钥都未通过网络传输" style="rounded=1;whiteSpace=wrap;html=1;fontSize=14;" vertex="1" parent="kDPMOWYQrUD8QyIsPTHs-1">
                    <mxGeometry x="265" y="600" width="270" height="60" as="geometry"/>
                </mxCell>
                <mxCell id="QmeGcUXVcKmXf-QaNLtk-20" style="edgeStyle=none;html=1;exitX=0.5;exitY=1;exitDx=0;exitDy=0;entryX=0.5;entryY=0;entryDx=0;entryDy=0;fontSize=14;fontColor=#99FF99;" parent="kDPMOWYQrUD8QyIsPTHs-1" edge="1">
                    <mxGeometry relative="1" as="geometry">
                        <mxPoint x="140" y="441" as="targetPoint"/>
                    </mxGeometry>
                </mxCell>
                <mxCell id="JwDkUBS2097RfAlYIRlh-12" value="" style="edgeStyle=none;html=1;fontColor=#000000;" parent="kDPMOWYQrUD8QyIsPTHs-1" edge="1">
                    <mxGeometry relative="1" as="geometry">
                        <mxPoint x="140" y="546" as="targetPoint"/>
                    </mxGeometry>
                </mxCell>
                <mxCell id="MqwLXj8ViMFqXoTFp2Kj-26" style="edgeStyle=none;html=1;exitX=0.5;exitY=1;exitDx=0;exitDy=0;entryX=0.5;entryY=0;entryDx=0;entryDy=0;fontSize=14;fontColor=#99FF99;" parent="kDPMOWYQrUD8QyIsPTHs-1" edge="1">
                    <mxGeometry relative="1" as="geometry">
                        <mxPoint x="140" y="1160" as="sourcePoint"/>
                    </mxGeometry>
                </mxCell>
                <mxCell id="0" value="Alice" style="verticalLabelPosition=bottom;shadow=0;dashed=0;align=center;html=1;verticalAlign=top;strokeWidth=1;shape=mxgraph.mockup.containers.userFemale;strokeColor=#666666;strokeColor2=#008cff;fontSize=14;" vertex="1" parent="kDPMOWYQrUD8QyIsPTHs-1">
                    <mxGeometry x="120" y="120" width="40" height="40" as="geometry"/>
                </mxCell>
                <mxCell id="1" value="Bob" style="verticalLabelPosition=bottom;shadow=0;dashed=0;align=center;html=1;verticalAlign=top;strokeWidth=1;shape=mxgraph.mockup.containers.userMale;strokeColor=#666666;strokeColor2=#008cff;fontSize=14;" vertex="1" parent="kDPMOWYQrUD8QyIsPTHs-1">
                    <mxGeometry x="640" y="120" width="40" height="40" as="geometry"/>
                </mxCell>
                <mxCell id="2" value="" style="verticalLabelPosition=bottom;html=1;verticalAlign=top;strokeWidth=1;align=center;outlineConnect=0;dashed=0;outlineConnect=0;shape=mxgraph.aws3d.end_user;strokeColor=none;fillColor=#777777;aspect=fixed;" vertex="1" parent="kDPMOWYQrUD8QyIsPTHs-1">
                    <mxGeometry x="385" y="537" width="30" height="61.51" as="geometry"/>
                </mxCell>
                <mxCell id="3" value="&lt;br style=&quot;font-size: 14px;&quot;&gt;&lt;span style=&quot;font-size: 14px; font-family: &amp;quot;avenir medium&amp;quot;; color: rgb(91, 88, 84);&quot;&gt;Alice&lt;/span&gt;&lt;span style=&quot;font-size: 14px; font-family: &amp;quot;pingfang sc medium&amp;quot;; color: rgb(91, 88, 84);&quot;&gt;和&lt;/span&gt;&lt;span style=&quot;font-size: 14px; font-family: &amp;quot;avenir medium&amp;quot;; color: rgb(91, 88, 84);&quot;&gt;Bob&lt;/span&gt;&lt;span style=&quot;font-size: 14px; font-family: &amp;quot;pingfang sc medium&amp;quot;; color: rgb(91, 88, 84);&quot;&gt;共享⼀个素数&lt;/span&gt;&lt;span style=&quot;font-size: 14px; font-family: &amp;quot;avenir medium&amp;quot;; color: rgb(91, 88, 84);&quot;&gt;q&lt;/span&gt;&lt;span style=&quot;font-size: 14px; font-family: &amp;quot;pingfang sc medium&amp;quot;; color: rgb(91, 88, 84);&quot;&gt;，以及整数&lt;/span&gt;&lt;span style=&quot;font-size: 14px; font-family: &amp;quot;avenir medium&amp;quot;; color: rgb(91, 88, 84);&quot;&gt;a(a&amp;lt;q)&lt;/span&gt;&lt;span style=&quot;font-size: 14px; font-family: &amp;quot;pingfang sc medium&amp;quot;; color: rgb(91, 88, 84);&quot;&gt;，且&lt;/span&gt;&lt;span style=&quot;font-size: 14px; font-family: &amp;quot;avenir medium&amp;quot;; color: rgb(91, 88, 84);&quot;&gt;a&lt;/span&gt;&lt;span style=&quot;font-size: 14px; font-family: &amp;quot;pingfang sc medium&amp;quot;; color: rgb(91, 88, 84);&quot;&gt;是&lt;/span&gt;&lt;span style=&quot;font-size: 14px; font-family: &amp;quot;avenir medium&amp;quot;; color: rgb(91, 88, 84);&quot;&gt;q&lt;/span&gt;&lt;span style=&quot;font-size: 14px; font-family: &amp;quot;pingfang sc medium&amp;quot;; color: rgb(91, 88, 84);&quot;&gt;的原根。&lt;/span&gt;&lt;br style=&quot;font-size: 14px;&quot;&gt;" style="text;html=1;align=center;verticalAlign=middle;resizable=0;points=[];autosize=1;strokeColor=none;fillColor=none;fontSize=14;" vertex="1" parent="kDPMOWYQrUD8QyIsPTHs-1">
                    <mxGeometry x="214" y="50" width="400" height="40" as="geometry"/>
                </mxCell>
                <mxCell id="8" value="" style="edgeStyle=none;html=1;fontSize=14;" edge="1" parent="kDPMOWYQrUD8QyIsPTHs-1" source="4" target="7">
                    <mxGeometry relative="1" as="geometry"/>
                </mxCell>
                <mxCell id="4" value="Alice生成一个私钥X&lt;sub&gt;a，&lt;/sub&gt;X&lt;sub&gt;a &lt;/sub&gt;＜ q" style="whiteSpace=wrap;html=1;fontSize=14;verticalAlign=top;strokeColor=#666666;shadow=0;dashed=0;strokeWidth=1;" vertex="1" parent="kDPMOWYQrUD8QyIsPTHs-1">
                    <mxGeometry x="32.5" y="230" width="215" height="40" as="geometry"/>
                </mxCell>
                <mxCell id="10" value="" style="edgeStyle=none;html=1;fontSize=14;" edge="1" parent="kDPMOWYQrUD8QyIsPTHs-1" source="6" target="9">
                    <mxGeometry relative="1" as="geometry"/>
                </mxCell>
                <mxCell id="6" value="Bob生成一个私钥X&lt;sub&gt;b，&lt;/sub&gt;X&lt;sub&gt;b &lt;/sub&gt;＜ q" style="whiteSpace=wrap;html=1;fontSize=14;verticalAlign=top;strokeColor=#666666;shadow=0;dashed=0;strokeWidth=1;" vertex="1" parent="kDPMOWYQrUD8QyIsPTHs-1">
                    <mxGeometry x="552.5" y="230" width="215" height="40" as="geometry"/>
                </mxCell>
                <mxCell id="12" value="" style="edgeStyle=none;html=1;fontSize=14;" edge="1" parent="kDPMOWYQrUD8QyIsPTHs-1" source="7" target="11">
                    <mxGeometry relative="1" as="geometry"/>
                </mxCell>
                <mxCell id="7" value="&lt;div style=&quot;text-align: justify&quot;&gt;A计算出Y&lt;sub&gt;a&lt;/sub&gt;&lt;sup&gt;&amp;nbsp;&lt;/sup&gt;= a &lt;sup&gt;Xa &lt;/sup&gt;mod q&lt;/div&gt;" style="whiteSpace=wrap;html=1;fontSize=14;verticalAlign=top;strokeColor=#666666;shadow=0;dashed=0;strokeWidth=1;" vertex="1" parent="kDPMOWYQrUD8QyIsPTHs-1">
                    <mxGeometry x="40" y="320" width="200" height="60" as="geometry"/>
                </mxCell>
                <mxCell id="14" value="" style="edgeStyle=none;html=1;fontSize=14;" edge="1" parent="kDPMOWYQrUD8QyIsPTHs-1" source="9" target="13">
                    <mxGeometry relative="1" as="geometry"/>
                </mxCell>
                <mxCell id="9" value="&lt;div style=&quot;text-align: justify&quot;&gt;B计算出Y&lt;sub&gt;b&lt;/sub&gt;&lt;sup&gt;&amp;nbsp;&lt;/sup&gt;= a &lt;sup&gt;Xb&lt;/sup&gt; mod q&lt;/div&gt;" style="whiteSpace=wrap;html=1;fontSize=14;verticalAlign=top;strokeColor=#666666;shadow=0;dashed=0;strokeWidth=1;" vertex="1" parent="kDPMOWYQrUD8QyIsPTHs-1">
                    <mxGeometry x="560" y="320" width="200" height="60" as="geometry"/>
                </mxCell>
                <mxCell id="16" value="" style="edgeStyle=none;html=1;fontSize=14;" edge="1" parent="kDPMOWYQrUD8QyIsPTHs-1" source="11" target="15">
                    <mxGeometry relative="1" as="geometry"/>
                </mxCell>
                <mxCell id="11" value="A收到了B发过来的Y&lt;sub&gt;b&lt;/sub&gt;" style="whiteSpace=wrap;html=1;fontSize=14;verticalAlign=top;strokeColor=#666666;shadow=0;dashed=0;strokeWidth=1;" vertex="1" parent="kDPMOWYQrUD8QyIsPTHs-1">
                    <mxGeometry x="80" y="460" width="120" height="60" as="geometry"/>
                </mxCell>
                <mxCell id="18" value="" style="edgeStyle=none;html=1;fontSize=14;" edge="1" parent="kDPMOWYQrUD8QyIsPTHs-1" source="13" target="17">
                    <mxGeometry relative="1" as="geometry"/>
                </mxCell>
                <mxCell id="13" value="B收到A发过来的Y&lt;sub&gt;a&lt;/sub&gt;" style="whiteSpace=wrap;html=1;fontSize=14;verticalAlign=top;strokeColor=#666666;shadow=0;dashed=0;strokeWidth=1;" vertex="1" parent="kDPMOWYQrUD8QyIsPTHs-1">
                    <mxGeometry x="600" y="460" width="120" height="60" as="geometry"/>
                </mxCell>
                <mxCell id="30" value="" style="edgeStyle=none;html=1;fontSize=14;entryX=0;entryY=0;entryDx=60;entryDy=0;entryPerimeter=0;" edge="1" parent="kDPMOWYQrUD8QyIsPTHs-1" source="15" target="28">
                    <mxGeometry relative="1" as="geometry"/>
                </mxCell>
                <mxCell id="15" value="A计算共享秘钥&lt;br&gt;K = Y&lt;sub&gt;b&lt;/sub&gt; &lt;sup&gt;Xa &lt;/sup&gt;mod q" style="whiteSpace=wrap;html=1;fontSize=14;verticalAlign=top;strokeColor=#666666;shadow=0;dashed=0;strokeWidth=1;" vertex="1" parent="kDPMOWYQrUD8QyIsPTHs-1">
                    <mxGeometry x="80" y="600" width="120" height="60" as="geometry"/>
                </mxCell>
                <mxCell id="31" value="" style="edgeStyle=none;html=1;fontSize=14;entryX=0;entryY=0;entryDx=580;entryDy=0;entryPerimeter=0;" edge="1" parent="kDPMOWYQrUD8QyIsPTHs-1" source="17" target="28">
                    <mxGeometry relative="1" as="geometry"/>
                </mxCell>
                <mxCell id="17" value="B计算共享秘钥&lt;br&gt;K = Y&lt;sub&gt;a&lt;/sub&gt;&amp;nbsp;&lt;sup&gt;Xb&amp;nbsp;&lt;/sup&gt;mod q" style="whiteSpace=wrap;html=1;fontSize=14;verticalAlign=top;strokeColor=#666666;shadow=0;dashed=0;strokeWidth=1;" vertex="1" parent="kDPMOWYQrUD8QyIsPTHs-1">
                    <mxGeometry x="600" y="600" width="120" height="60" as="geometry"/>
                </mxCell>
                <mxCell id="23" value="" style="shape=flexArrow;endArrow=classic;html=1;fontSize=14;" edge="1" parent="kDPMOWYQrUD8QyIsPTHs-1">
                    <mxGeometry width="50" height="50" relative="1" as="geometry">
                        <mxPoint x="250" y="350" as="sourcePoint"/>
                        <mxPoint x="590" y="490" as="targetPoint"/>
                    </mxGeometry>
                </mxCell>
                <mxCell id="24" value="" style="shape=flexArrow;endArrow=classic;html=1;fontSize=14;" edge="1" parent="kDPMOWYQrUD8QyIsPTHs-1">
                    <mxGeometry width="50" height="50" relative="1" as="geometry">
                        <mxPoint x="550" y="360" as="sourcePoint"/>
                        <mxPoint x="220" y="490" as="targetPoint"/>
                    </mxGeometry>
                </mxCell>
                <mxCell id="26" value="" style="points=[[0,0.5,0],[0.24,0,0],[0.5,0.28,0],[0.995,0.475,0],[0.5,0.72,0],[0.24,1,0]];verticalLabelPosition=bottom;sketch=0;html=1;verticalAlign=top;aspect=fixed;align=center;pointerEvents=1;shape=mxgraph.cisco19.key;fillColor=#008a00;strokeColor=#005700;fontSize=14;fontColor=#ffffff;" vertex="1" parent="kDPMOWYQrUD8QyIsPTHs-1">
                    <mxGeometry x="20" y="619" width="50" height="22.5" as="geometry"/>
                </mxCell>
                <mxCell id="27" value="" style="points=[[0,0.5,0],[0.24,0,0],[0.5,0.28,0],[0.995,0.475,0],[0.5,0.72,0],[0.24,1,0]];verticalLabelPosition=bottom;sketch=0;html=1;verticalAlign=top;aspect=fixed;align=center;pointerEvents=1;shape=mxgraph.cisco19.key;fillColor=#008a00;strokeColor=#005700;fontSize=14;fontColor=#ffffff;" vertex="1" parent="kDPMOWYQrUD8QyIsPTHs-1">
                    <mxGeometry x="730" y="618.75" width="50" height="22.5" as="geometry"/>
                </mxCell>
                <mxCell id="28" value="" style="strokeWidth=1;outlineConnect=0;dashed=0;align=center;html=1;fontSize=8;shape=mxgraph.eip.messageChannel;verticalLabelPosition=bottom;labelBackgroundColor=#ffffff;verticalAlign=top;fillColor=#008a00;fontColor=#ffffff;strokeColor=#005700;" vertex="1" parent="kDPMOWYQrUD8QyIsPTHs-1">
                    <mxGeometry x="80" y="730" width="640" height="20" as="geometry"/>
                </mxCell>
                <mxCell id="29" value="" style="sketch=0;aspect=fixed;pointerEvents=1;shadow=0;dashed=0;html=1;strokeColor=#005700;labelPosition=center;verticalLabelPosition=bottom;verticalAlign=top;align=center;fillColor=#008a00;shape=mxgraph.mscae.enterprise.lock;fontSize=14;fontColor=#ffffff;" vertex="1" parent="kDPMOWYQrUD8QyIsPTHs-1">
                    <mxGeometry x="399" y="700" width="39" height="50" as="geometry"/>
                </mxCell>
            </root>
        </mxGraphModel>
    </diagram>
</mxfile>